PathFileType	4	(X/Y/Z)	Patient4_TMGait_0pt3_03_right_02.trc.trc
DataRate	CameraRate	NumFrames	NumMarkers	Units	OrigDataRate	OrigDataStartFrame	OrigNumFrames
52.631578947368	52.631578947368	4	33	mm	52.631578947368	1	       141
Frame#	Time	Sacral			L.Shoulder			Chest			R.Shoulder			Neck			R.ASIS			L.ASIS			R.Thigh.Superior			R.Thigh.Lateral			R.Thigh.Inferior			R.Patella			L.Thigh.Superior			L.Thigh.Lateral			L.Thigh.Inferior			L.Patella			L.Shank.Superior			L.Shank.Lateral			L.Shank.Inferior			R.Shank.Superior			R.Shank.Lateral			R.Shank.Inferior			R.Heel			R.Midfoot.Superior			R.Midfoot.Lateral			R.Toe			L.Heel			L.Midfoot.Lateral			L.Midfoot.Superior			L.Toe			L.Elbow			L.Wrist			R.Elbow			R.Wrist			
		X1	Y1	Z1	X2	Y2	Z2	X3	Y3	Z3	X4	Y4	Z4	X5	Y5	Z5	X6	Y6	Z6	X7	Y7	Z7	X8	Y8	Z8	X9	Y9	Z9	X10	Y10	Z10	X11	Y11	Z11	X12	Y12	Z12	X13	Y13	Z13	X14	Y14	Z14	X15	Y15	Z15	X16	Y16	Z16	X17	Y17	Z17	X18	Y18	Z18	X19	Y19	Z19	X20	Y20	Z20	X21	Y21	Z21	X22	Y22	Z22	X23	Y23	Z23	X24	Y24	Z24	X25	Y25	Z25	X26	Y26	Z26	X27	Y27	Z27	X28	Y28	Z28	X29	Y29	Z29	X30	Y30	Z30	X31	Y31	Z31	X32	Y32	Z32	X33	Y33	Z33	

1	3.600000000000	792.477882502178	997.781238786741	414.752450946215	973.981124244786	1421.256889784684	226.936353464624	1086.685399890278	1344.068590222918	377.013705368853	1025.128646268842	1417.469439555610	559.273963053224	976.930251404679	1481.578061055463	386.250078965431	1028.117258852722	918.993225097600	510.345969222380	994.052973768395	950.686915324012	240.996706290656	1066.815761997407	718.614402767890	478.255475666684	996.037788474042	610.691981745411	554.865836559614	1065.151846710223	550.076791144557	467.723587870680	1054.633527496972	439.539091552964	491.802174238703	1060.799842127999	747.626357707071	282.981080294156	987.458528741256	619.287567817955	230.092632682984	1077.462279779653	552.288537770291	299.913848303260	1083.526456071470	476.609729823544	309.371123076476	1043.766663856766	402.585008687516	304.936957781966	942.038341129370	300.115742884095	251.935343908271	969.686622109193	185.545031670276	327.552571895554	969.853968740574	382.094141554240	510.076917986664	849.995011594130	361.144167493194	581.422879975871	817.539183778798	253.343024721297	538.935721667280	608.153318597555	220.649936947552	527.718890302674	768.450050237945	138.249301145911	564.446897977911	661.856318241509	156.066124968777	601.062315997094	818.315225892565	27.180619312418	590.624627473739	821.163400040113	40.750410242382	362.899582734706	898.209731089397	36.474726300006	286.000216751315	982.154946136806	95.898500859044	316.644983227602	1110.141690393925	39.787062511711	292.257423006745	948.484700074791	1073.290472487875	94.565187793104	1036.565981904731	827.517259851403	83.257920895469	1038.350740037231	1058.677205191326	664.701413573158	1141.410386260057	824.235584288767	610.248701470079	
2	3.619000000000	791.510499875140	993.573487565937	411.792453005069	974.775070459864	1418.576202955224	226.999808541033	1085.655337493886	1340.716002714416	378.018176378689	1021.862272550197	1412.516907052394	560.095153633774	975.858850750337	1478.174698691688	386.974621578500	1027.209656010014	916.230044172661	508.959683392328	994.713764520098	947.633186816417	239.199995346644	1071.495726719229	718.831836047657	475.531998672990	1004.883774082952	609.511765035765	551.779081263308	1075.342601996010	550.944526770727	464.161324252379	1067.474310648127	439.213083344619	488.400161540690	1062.683756637653	745.163642021343	282.459002558384	990.714783940011	616.019957819438	230.086182469860	1080.543119596852	549.828340796885	301.283940550864	1086.810272380546	473.527217157459	311.105163316457	1045.390740888395	399.444764020252	306.328824418960	941.985407201489	299.077133862438	252.579319165797	966.450892792535	184.141595302602	328.154206146334	981.398508965441	381.869051899131	506.956756893646	860.377178808772	363.942595680918	577.278301381771	826.513361437710	256.328118322100	535.909823119782	616.896496902956	227.478801756914	522.763381681454	775.455400962190	142.691715226800	562.598986713013	668.705807082928	163.033334974275	597.590309197405	821.951564606174	28.778646447331	590.959084013748	815.468557407804	41.182870489146	362.822609086840	892.533285016655	36.713351837103	285.982041687408	976.628234453793	95.765826468808	316.853504941911	1104.450566395173	39.577329300668	292.148073865274	958.776162131722	1070.992380734021	92.718127186740	1050.285548622163	826.540358200213	82.877866591361	1020.742025528331	1055.373422690773	667.675797239931	1108.163533515668	815.106838175802	624.010656037453	
3	3.638000000000	790.506922683513	989.369515562358	408.812769558898	975.631001528276	1415.855126265176	227.118421390313	1084.591537046848	1337.367643963858	379.157230830412	1018.418529835819	1407.626466223964	560.972234943330	974.759388504404	1474.768209086197	387.721471040856	1026.175824729162	913.432864096479	507.720881058556	995.418577041440	944.541208464440	237.559470783293	1076.101351061620	719.187418424090	472.953631782400	1013.738556197801	608.484716530035	548.877114608890	1085.567258004248	552.029016605244	460.782025375597	1080.477797224927	439.153901389719	485.205896013846	1064.535842166221	742.623134128210	282.055668680903	993.874123181921	612.734584229820	230.115897789557	1083.461013747015	547.290821100064	302.725259598928	1089.885234871809	470.399737252230	312.919869054388	1046.820994529578	396.269321841338	307.770109774727	941.771744186719	297.999164337301	253.237888598769	963.054579799380	182.708239168411	328.764233126684	993.226330256088	381.742821360947	504.025083987577	870.995490355776	366.529978250935	573.245275378614	836.024181298625	258.961174393058	532.988497422767	626.087831067268	233.138965343524	517.789213061962	783.328672588136	146.761853739058	560.862057222108	676.269068242898	169.178068393627	594.192278739402	827.066447625932	30.433653921843	591.604118483909	809.623873803242	41.581986207660	362.730488664220	886.712481861504	36.926869367080	285.949820013849	970.943798128254	95.621919872597	317.060385055979	1098.614861281522	39.375632505719	292.041671099325	969.105681183548	1068.725802006445	90.950900289869	1064.491989056286	825.773580862108	82.686177415144	1002.688729205568	1052.340615472540	670.539810231977	1074.372859628860	806.609583304909	637.603074694032	
4	3.657000000000	789.482481477859	985.372176725223	405.914423197466	976.569599392103	1413.221256837949	227.335115950331	1083.516647095217	1334.191544056823	380.482026713738	1014.822463276394	1403.048010353945	561.918085544387	973.660371076428	1471.523540502806	388.494761961534	1024.977934119968	910.736584132462	506.761842764913	996.188368697527	941.563530934226	236.218758901977	1080.426279265181	719.784875126659	470.698333358561	1022.279153164093	607.759815378418	546.363923480508	1095.472794607894	553.435810622486	457.813840333582	1093.265063195000	439.545609152866	482.445945886866	1066.241300662261	740.080135779074	281.855364708751	996.729751784998	609.572307754146	230.210706319857	1085.966986851540	544.750311014355	304.231081956365	1092.470859656943	467.341583539883	314.795663614155	1047.841802209929	393.182542389721	309.236883534640	941.265851548606	296.923466116769	253.895067756281	959.488331335045	181.299128144891	329.363456685250	1005.088589176512	381.810397875254	501.497563560762	881.663863258959	368.703113039498	569.562247431677	846.110078010053	260.982239477487	530.363235606517	635.803350897742	236.809974805413	513.049683223814	792.373689980519	150.128250912554	559.376201707693	684.823874035852	173.832956501903	591.081526093171	834.377278077334	32.124781083298	592.662053215749	803.721094082059	41.926900454132	362.619373108375	880.840755082138	37.101745781454	285.898515913186	965.186611390365	95.470671496809	317.254548108131	1092.728196933960	39.191160775806	291.941733115199	979.192197655198	1066.643702300555	89.374443501599	1079.038125490343	825.453105397622	82.815304545421	984.543299831956	1049.873929537716	673.140032846272	1040.884152293426	799.358962464084	650.461356277988	
